<svg width="363" height="363" viewBox="0 0 363 363" fill="none" xmlns="http://www.w3.org/2000/svg">
<path fill-rule="evenodd" clip-rule="evenodd" d="M145.886 90.8643C122.426 75.9212 89.3837 79.4955 70.4166 103.942L65.7376 109.973C43.5409 138.582 46.7458 179.38 73.1374 204.172L178.296 302.957C179.837 304.404 180.79 305.292 181.501 305.891C182.212 305.292 183.166 304.404 184.707 302.957L289.865 204.172C316.257 179.38 319.462 138.582 297.265 109.973L292.586 103.942C272.361 77.8747 236.134 75.5319 212.569 94.0915L202.05 80.7362C232.564 56.7037 279.651 59.5383 306.017 93.521L310.696 99.5517C338.268 135.089 334.287 185.767 301.504 216.562L196.346 315.347L196.121 315.559C194.507 317.076 192.88 318.604 191.371 319.767C189.678 321.071 187.474 322.451 184.594 323.016L183.179 315.804L184.594 323.016C182.552 323.417 180.451 323.417 178.408 323.016L179.862 315.607L178.408 323.016C175.529 322.451 173.325 321.071 171.631 319.767C170.122 318.605 168.496 317.076 166.882 315.56L166.656 315.347L61.498 216.562C28.7153 185.766 24.7343 135.089 52.3061 99.5518L56.9851 93.5211C84.0978 58.5758 133.121 56.5606 163.52 82.8564L169.664 88.1714L164.632 94.5497L150.605 112.329C145.105 119.301 141.553 123.836 139.419 127.491C137.407 130.937 137.45 132.303 137.594 133.089C137.738 133.875 138.182 135.168 141.285 137.677C144.576 140.338 149.506 143.319 157.12 147.888L171.704 156.638L172.193 156.932C178.651 160.806 184.229 164.152 188.315 167.432C192.695 170.949 196.424 175.201 197.783 181.244C199.142 187.288 197.593 192.727 195.139 197.781C192.851 202.494 189.242 207.906 185.065 214.171L184.748 214.646L173.449 231.594L159.304 222.164L170.603 205.217C175.188 198.339 178.127 193.897 179.846 190.355C181.458 187.035 181.368 185.736 181.197 184.974C181.026 184.212 180.551 182.999 177.673 180.689C174.602 178.224 170.045 175.468 162.957 171.215L148.374 162.465L147.862 162.158C140.904 157.984 134.927 154.398 130.597 150.897C125.972 147.158 122.055 142.61 120.872 136.153C119.689 129.696 121.739 124.055 124.738 118.92C127.546 114.11 131.863 108.638 136.889 102.269L137.259 101.8L145.886 90.8643Z" fill="black"/>
</svg>
