<svg width="81" height="81" viewBox="0 0 81 81" fill="none" xmlns="http://www.w3.org/2000/svg">
<path d="M10.125 33.2576C10.125 29.8016 12.9266 27 16.3826 27V27C18.7528 27 20.9196 25.6609 21.9796 23.5409L24.75 18C25.1211 17.2578 25.3067 16.8867 25.5171 16.5639C26.6149 14.8798 28.4063 13.7726 30.4036 13.5438C30.7864 13.5 31.2013 13.5 32.0312 13.5H48.9688C49.7987 13.5 50.2136 13.5 50.5964 13.5438C52.5937 13.7726 54.3851 14.8798 55.4829 16.5639C55.6933 16.8867 55.8789 17.2578 56.25 18L59.0204 23.5409C60.0804 25.6609 62.2472 27 64.6174 27V27C68.0734 27 70.875 29.8016 70.875 33.2576V50.1429C70.875 56.9089 70.875 60.292 69.3231 62.7618C68.5138 64.0498 67.4248 65.1388 66.1368 65.9481C63.667 67.5 60.2839 67.5 53.5179 67.5H27.4821C20.7161 67.5 17.333 67.5 14.8632 65.9481C13.5752 65.1388 12.4862 64.0498 11.6769 62.7618C10.125 60.292 10.125 56.9089 10.125 50.1429V33.2576Z" stroke="#545454" stroke-width="5"/>
<circle cx="40.5" cy="43.875" r="11" stroke="#545454" stroke-width="5"/>
</svg>
