<svg width="46" height="46" viewBox="0 0 46 46" fill="none" xmlns="http://www.w3.org/2000/svg">
<path d="M23.2982 20.8659C25.3808 20.8659 27.069 19.1776 27.069 17.0951C27.069 15.0125 25.3808 13.3242 23.2982 13.3242C21.2156 13.3242 19.5273 15.0125 19.5273 17.0951C19.5273 19.1776 21.2156 20.8659 23.2982 20.8659Z" stroke="#313B58" stroke-opacity="0.8" stroke-width="2.82812" stroke-linecap="round" stroke-linejoin="round"/>
<path d="M23.2956 39.7187C23.2956 39.7187 36.4935 30.5817 36.4935 18.8341C36.4935 15.3723 35.103 12.0522 32.6279 9.60435C30.1528 7.15646 26.7959 5.78125 23.2956 5.78125C19.7953 5.78125 16.4383 7.15646 13.9632 9.60435C11.4881 12.0522 10.0977 15.3723 10.0977 18.8341C10.0977 30.5817 23.2956 39.7187 23.2956 39.7187Z" stroke="#313B58" stroke-opacity="0.8" stroke-width="2.82812" stroke-linecap="round" stroke-linejoin="round"/>
</svg>
